<?xml version="1.0" encoding="UTF-8"?>
<svg width="24px" height="24px" viewBox="0 0 24 24" version="1.1" xmlns="http://www.w3.org/2000/svg">
    <g stroke="none" stroke-width="1" fill="none" fill-rule="evenodd">
        <path d="M12,9 C14.209139,9 16,10.790861 16,13 C16,15.209139 14.209139,17 12,17 C9.790861,17 8,15.209139 8,13 C8,10.790861 9.790861,9 12,9 Z M12,10.5 C10.6192881,10.5 9.5,11.6192881 9.5,13 C9.5,14.3807119 10.6192881,15.5 12,15.5 C13.3807119,15.5 14.5,14.3807119 14.5,13 C14.5,11.6192881 13.3807119,10.5 12,10.5 Z" fill="#37474F"/>
        <path d="M9,2 L15,2 L16.5,4 L20,4 C21.1045695,4 22,4.8954305 22,6 L22,18 C22,19.1045695 21.1045695,20 20,20 L4,20 C2.8954305,20 2,19.1045695 2,18 L2,6 C2,4.8954305 2.8954305,4 4,4 L7.5,4 L9,2 Z M9.83333333,4 L8.33333333,6 L4,6 L4,18 L20,18 L20,6 L15.6666667,6 L14.1666667,4 L9.83333333,4 Z" fill="#37474F"/>
    </g>
</svg> 